{"title":"5 Seconds Of Summer - Don't Stop [Music Video] 1080p [Sbyky]","uid":10916105,"size":69179965,"categoryP":"video","categoryS":"music_videos","magnet":"?xt=urn:btih:e9021451cb6d824c2215e02de72762d5d9f444ca&amp;dn=5+Seconds+Of+Summer+-+Don%27t+Stop+%5BMusic+Video%5D+1080p+%5BSbyky%5D&amp;tr=udp%3A%2F%2Ftracker.openbittorrent.com%3A80&amp;tr=udp%3A%2F%2Fopen.demonii.com%3A1337&amp;tr=udp%3A%2F%2Ftracker.coppersurfer.tk%3A6969&amp;tr=udp%3A%2F%2Fexodus.desync.com%3A6969","seeders":1,"leechers":1,"uploader":"Sbyky","files":1,"time":1409308946,"description":"\n\nGeneral\nComplete name                            : 5 Seconds Of Summer - Don't Stop [Music Video] 1080p [Sbyky].MP4\nFormat                                   : MPEG-4\nFormat profile                           : Base Media\nCodec ID                                 : isom\nFile size                                : 66.0 MiB\nDuration                                 : 3mn 38s\nOverall bit rate mode                    : Variable\nOverall bit rate                         : 2 529 Kbps\nEncoded date                             : UTC 2014-05-23 07:37:13\nTagged date                              : UTC 2014-05-23 07:37:13\n\nVideo\nID                                       : 1\nFormat                                   : AVC\nFormat/Info                              : Advanced Video Codec\nFormat profile                           : &lt;a class=&quot;__cf_email__&quot; href=&quot;/cdn-cgi/l/email-protection&quot; data-cfemail=&quot;2860414f4068641c0618&quot;&gt;[email&amp;#160;protected]&lt;/a&gt;&lt;script cf-hash='f9e31' type=&quot;text/javascript&quot;&gt;\n/* &lt;![CDATA[ */!function(){try{var t=&quot;currentScript&quot;in document?document.currentScript:function(){for(var t=document.getElementsByTagName(&quot;script&quot;),e=t.length;e--;)if(t[e].getAttribute(&quot;cf-hash&quot;))return t[e]}();if(t&amp;&amp;t.previousSibling){var e,r,n,i,c=t.previousSibling,a=c.getAttribute(&quot;data-cfemail&quot;);if(a){for(e=&quot;&quot;,r=parseInt(a.substr(0,2),16),n=2;a.length-n;n+=2)i=parseInt(a.substr(n,2),16)^r,e+=String.fromCharCode(i);e=document.createTextNode(e),c.parentNode.replaceChild(e,c)}}}catch(u){}}();/* ]]&gt; */&lt;/script&gt;\nFormat settings, CABAC                   : Yes\nFormat settings, ReFrames                : 3 frames\nCodec ID                                 : avc1\nCodec ID/Info                            : Advanced Video Coding\nDuration                                 : 3mn 38s\nBit rate                                 : 2 399 Kbps\nWidth                                    : 1 920 pixels\nHeight                                   : 1 080 pixels\nDisplay aspect ratio                     : 16:9\nFrame rate mode                          : Variable\nFrame rate                               : 23.976 fps\nMinimum frame rate                       : 23.974 fps\nMaximum frame rate                       : 1 267.606 fps\nColor space                              : YUV\nChroma subsampling                       : 4:2:0\nBit depth                                : 8 bits\nScan type                                : Progressive\nBits/(Pixel*Frame)                       : 0.048\nStream size                              : 62.6 MiB (95%)\nEncoded date                             : UTC 2014-05-23 07:37:13\nTagged date                              : UTC 2014-05-23 07:37:13\n\nAudio\nID                                       : 2\nFormat                                   : AAC\nFormat/Info                              : Advanced Audio Codec\nFormat profile                           : LC\nCodec ID                                 : 40\nDuration                                 : 3mn 38s\nBit rate mode                            : Variable\nBit rate                                 : 126 Kbps\nChannel(s)                               : 2 channels\nChannel positions                        : Front: L R\nSampling rate                            : 44.1 KHz\nCompression mode                         : Lossy\nStream size                              : 3.28 MiB (5%)\nEncoded date                             : UTC 2014-05-23 07:36:08\nTagged date                              : UTC 2014-05-23 07:36:08\n\nShared By Sbyky\n","torrent":{"xt":"urn:btih:e9021451cb6d824c2215e02de72762d5d9f444ca","amp;dn":"5+Seconds+Of+Summer+-+Don%27t+Stop+%5BMusic+Video%5D+1080p+%5BSbyky%5D","amp;tr":["udp%3A%2F%2Ftracker.openbittorrent.com%3A80","udp%3A%2F%2Fopen.demonii.com%3A1337","udp%3A%2F%2Ftracker.coppersurfer.tk%3A6969","udp%3A%2F%2Fexodus.desync.com%3A6969"],"infoHash":"e9021451cb6d824c2215e02de72762d5d9f444ca","infoHashBuffer":{"type":"Buffer","data":[233,2,20,81,203,109,130,76,34,21,224,45,231,39,98,213,217,244,68,202]},"announce":[],"urlList":[]}}